<?xml version="1.0" encoding="utf-8"?>

<!DOCTYPE svg PUBLIC "-//W3C//DTD SVG 1.1//EN" "http://www.w3.org/Graphics/SVG/1.1/DTD/svg11.dtd">
<!-- Uploaded to: SVG Repo, www.svgrepo.com, Generator: SVG Repo Mixer Tools -->
<svg height="800px" width="800px" version="1.1" id="_x32_" xmlns="http://www.w3.org/2000/svg" xmlns:xlink="http://www.w3.org/1999/xlink" 
	 viewBox="0 0 512 512"  xml:space="preserve">
<style type="text/css">
	.st0{fill:#000000;}
</style>
<g>
	<polygon class="st0" points="206.395,471.553 198.14,455.804 189.899,471.553 194.019,471.553 194.019,487.294 191.393,487.294 
		191.393,491.798 204.894,491.798 204.894,487.294 202.267,487.294 202.267,471.553 	"/>
	<polygon class="st0" points="182.679,471.553 174.424,455.804 166.184,471.553 170.304,471.553 170.304,487.294 167.678,487.294 
		167.678,491.798 181.178,491.798 181.178,487.294 178.552,487.294 178.552,471.553 	"/>
	<path class="st0" d="M430.624,421.03c-0.118-14.557-0.289-28.397-0.533-39.078c-0.488-20.342-3.72-37.615-18.514-52.735
		c-11.828-12.087-26.896-18.973-40.773-23.722c-6.946-2.367-13.633-4.194-19.514-5.785c-5.874-1.598-10.97-2.988-14.499-4.312
		c-6.938-2.589-14.284-5.925-19.395-9.52c-2.56-1.783-4.528-3.618-5.674-5.186c-1.154-1.598-1.465-2.707-1.479-3.669
		c0-6.679,0-15.031,0-26.016c8.884-9.882,21.651-25.202,26.888-49.479c1.834-0.829,3.646-1.76,5.392-2.974
		c4.342-2.996,8.025-7.353,11.154-13.278c3.144-5.94,5.926-13.544,8.899-23.944c1.502-5.274,2.198-9.845,2.198-13.929
		c0.014-4.705-0.962-8.781-2.738-12.094c-2.662-5.015-6.982-7.811-10.481-9.076c-0.614-0.23-1.147-0.34-1.709-0.496h2.056
		c0,0-5.274-55.56-5.274-75.066C346.63,31.171,290.101,0,256.007,0c-34.094,0-90.622,31.171-90.622,50.67
		c0,19.506-5.274,75.066-5.274,75.066h1.384c-0.03,0.074-0.09,0.192-0.112,0.266c-1.442,0.444-2.974,1.029-4.608,2.027
		c-2.507,1.546-5.037,3.965-6.797,7.279c-1.776,3.314-2.752,7.39-2.745,12.094c0.008,4.084,0.703,8.662,2.205,13.929
		c3.972,13.848,7.567,22.791,12.213,29.352c2.322,3.262,4.963,5.874,7.84,7.87c1.746,1.214,3.559,2.145,5.393,2.974
		c5.237,24.278,18.005,39.597,26.882,49.479c0,10.985,0,19.337,0,26.016c0,0.821-0.326,2.005-1.598,3.699
		c-1.864,2.508-5.74,5.548-10.341,8.136c-4.586,2.611-9.861,4.868-14.476,6.488c-4.786,1.708-12.183,3.476-20.579,5.792
		c-12.627,3.499-27.651,8.27-41.084,17.072c-26.74,17.509-31.615,43.717-31.711,73.336c-0.081,27.074-0.651,54.147-0.836,81.22
		c-0.067,9.868-0.023,19.736-0.023,29.596c0,1.835,0,2.84,0,2.84L81.124,512h58.77h116.113h116.105h58.77l0.008-6.798
		c0,0,0.008-3.099,0.008-8.373C430.898,482.042,430.869,450.13,430.624,421.03z M311.183,303.475l29.906,31.66l-27.998,21.526
		l6.266,14.528h-41.187L311.183,303.475z M231.256,50.352h49.502v22.332h-49.502V50.352z M187.421,195.402l-0.688-3.89l-3.721-1.332
		c-2.367-0.844-4.172-1.716-5.755-2.804c-2.322-1.65-4.43-3.884-6.894-8.478c-2.441-4.579-5.015-11.399-7.841-21.296
		c-1.236-4.328-1.68-7.7-1.68-10.201c0.008-2.9,0.562-4.593,1.132-5.674c0.858-1.554,1.909-2.219,3.248-2.752
		c1.103-0.422,2.249-0.533,2.685-0.548l2.056,0.252v8.618l15.342,30.854v-55.812c16.651-6.746,40.462-15.556,67.048-15.556
		c20.749,0,41.032,5.378,57.801,10.948l16.555,7.804v52.616l15.342-30.854v-8.736l1.894-0.14c0.332-0.022,2.626,0.185,4.09,1.169
		c0.784,0.496,1.42,1.073,1.998,2.138c0.57,1.08,1.124,2.774,1.132,5.674c0,2.508-0.444,5.873-1.679,10.201
		c-3.75,13.218-7.116,20.904-10.201,25.165c-1.546,2.152-2.959,3.506-4.534,4.608c-1.575,1.087-3.38,1.96-5.748,2.804l-3.728,1.332
		l-0.688,3.89c-4.357,24.396-16.917,38.11-26.201,48.451l-1.745,1.938v2.611c0,12.376,0,21.4,0,28.62
		c-0.015,4.483,1.731,8.522,4.128,11.739c0.488,0.652,1.057,1.228,1.59,1.842l-13.166,27.014h-66.36l-13.24-27.14
		c0.451-0.526,0.991-0.976,1.413-1.532c2.471-3.24,4.371-7.294,4.371-11.924c0-7.22,0-16.244,0-28.62v-2.611l-1.745-1.938
		C204.346,233.513,191.778,219.798,187.421,195.402z M200.832,303.475l33.013,67.714h-41.187l6.266-14.528l-27.998-21.526
		L200.832,303.475z M358.509,498.389H153.505V384.792h87.545v32.377h29.906v-32.377h87.552V498.389z"/>
</g>
</svg>