<?xml version="1.0" encoding="iso-8859-1"?>
<!-- Uploaded to: SVG Repo, www.svgrepo.com, Generator: SVG Repo Mixer Tools -->
<svg height="800px" width="800px" version="1.1" id="Layer_1" xmlns="http://www.w3.org/2000/svg" xmlns:xlink="http://www.w3.org/1999/xlink" 
	 viewBox="0 0 503.467 503.467" xml:space="preserve">
<g transform="translate(1)">
	<path style="fill:#ECF4F7;" d="M353.987,86.904c-6.827,7.68-10.24,17.067-10.24,28.16c0,23.893,18.773,42.667,42.667,42.667
		c23.893,0,42.667-18.773,42.667-42.667s-18.773-42.667-42.667-42.667C373.613,72.397,362.52,78.37,353.987,86.904L353.987,86.904z
		 M245.613,51.064l21.333-21.333l0,0c17.067-17.067,34.133-25.6,59.733-25.6h136.533c18.773,0,34.133,15.36,34.133,34.133v136.533
		c0,17.067-3.413,29.867-11.093,41.813c-4.267,5.973-8.533,11.947-14.507,17.92l-230.4,230.4l-23.04,23.04
		c-13.653,13.653-34.987,13.653-48.64,0L12.654,330.957C-1,317.304-1,295.971,12.654,283.171L245.613,51.064z"/>
	<path style="fill:#FF7474;" d="M353.987,87.04c7.68-8.533,19.627-14.507,32.427-14.507c23.893,0,42.667,18.773,42.667,42.667
		s-18.773,42.667-42.667,42.667c-23.893,0-42.667-18.773-42.667-42.667C343.747,104.107,348.013,94.72,353.987,87.04z
		 M487.107,216.747l-151.04,265.387c-9.387,16.213-30.72,22.187-46.933,12.8L242.2,465.92l0,0l230.4-230.4
		C477.72,228.693,482.84,222.72,487.107,216.747L487.107,216.747z"/>
</g>
<path style="fill:#51565F;" d="M307.2,503.467c-6.827,0-12.8-1.707-18.773-5.12l-19.627-12.8c-1.707-1.707-2.56-4.267-0.853-5.973
	c1.707-1.707,4.267-2.56,5.973-0.853l18.773,11.947c13.653,8.533,32.427,3.413,40.96-11.093l98.133-166.4
	c0.853-1.707,3.413-2.56,5.973-1.707c1.707,0.853,2.56,3.413,1.707,5.973l-98.133,166.4C332.8,496.64,320,503.467,307.2,503.467z
	 M195.413,502.614c-10.24,0-19.627-3.413-27.307-11.093L11.093,334.507C3.413,327.68,0,317.44,0,307.2
	c0-10.24,4.267-19.627,11.093-27.307L238.08,52.907c-29.013-6.827-55.467-11.093-77.653-13.653
	c-37.547-3.413-40.96,3.413-40.96,3.413c-0.853,1.707,7.68,13.653,56.32,33.28c2.56,0.853,3.413,3.413,2.56,5.12
	c-0.853,2.56-3.413,3.413-5.12,2.56c-43.52-17.067-64-31.573-61.44-42.667c1.707-5.973,8.533-13.653,50.347-9.387
	C186.027,33.28,215.04,38.4,245.76,46.08l19.627-19.627C284.16,7.68,302.933,0,328.533,0h136.533c21.333,0,38.4,17.067,38.4,38.4
	v136.533c0,25.6-7.68,43.52-26.453,63.147l-253.44,253.44C215.04,499.2,204.8,502.614,195.413,502.614z M248.32,55.467l-230.4,230.4
	c-5.973,5.973-8.533,12.8-8.533,21.333c0,7.68,3.413,15.36,8.533,21.333l157.013,157.013c11.947,11.947,30.72,11.947,41.813,0
	l253.44-253.44c17.067-17.067,24.747-34.133,24.747-56.32V39.253c0-16.213-13.653-29.867-29.867-29.867H328.533
	c-23.04,0-39.253,6.827-56.32,24.747l0,0L256,50.347c2.56,0.853,5.12,1.707,8.533,2.56c37.547,10.24,72.533,22.187,98.133,34.133
	c37.547,17.92,40.107,27.307,38.4,33.28c-1.707,5.973-8.533,9.387-20.48,10.24c-2.56,0-4.267-1.707-4.267-4.267
	s1.707-4.267,4.267-4.267c10.24-0.853,12.8-3.413,12.8-4.267c0,0,0-7.68-34.133-23.893c0,0-0.853,0-0.853-0.853
	c-5.12,6.827-7.68,14.507-7.68,23.04c0,21.333,17.067,38.4,38.4,38.4c21.333,0,38.4-17.067,38.4-38.4s-17.067-38.4-38.4-38.4
	c-2.56,0-4.267-1.707-4.267-4.267c0-2.56,1.707-4.267,4.267-4.267c25.6,0,46.933,21.333,46.933,46.933s-21.333,46.933-46.933,46.933
	c-25.6,0-46.933-21.333-46.933-46.933c0-9.387,2.56-18.773,8.533-26.453c-23.893-10.24-54.613-20.48-87.893-29.867
	C256.854,58.027,252.587,57.174,248.32,55.467z M208.213,366.934c-2.56,0-4.267-1.707-4.267-4.267V243.2
	c0-2.56,1.707-4.267,4.267-4.267s4.267,1.707,4.267,4.267v119.467C212.48,365.227,210.773,366.934,208.213,366.934z M148.48,332.8
	c-6.827,0-12.8-5.973-12.8-12.8s5.973-12.8,12.8-12.8s12.8,5.973,12.8,12.8S155.307,332.8,148.48,332.8z M148.48,315.734
	c-2.56,0-4.267,1.707-4.267,4.267s1.707,4.267,4.267,4.267s4.267-1.707,4.267-4.267S151.04,315.734,148.48,315.734z M267.947,281.6
	c-6.827,0-12.8-5.973-12.8-12.8c0-6.827,5.973-12.8,12.8-12.8s12.8,5.973,12.8,12.8C280.747,275.627,274.773,281.6,267.947,281.6z
	 M267.947,264.534c-2.56,0-4.267,1.707-4.267,4.267c0,2.56,1.707,4.267,4.267,4.267s4.267-1.707,4.267-4.267
	C272.213,266.24,270.507,264.534,267.947,264.534z"/>
</svg>